<?xml version="1.0" encoding="UTF-8" standalone="no"?>
<!DOCTYPE svg PUBLIC "-//W3C//DTD SVG 1.0//EN" "http://www.w3.org/TR/2001/PR-SVG-20010719/DTD/svg10.dtd">
<svg width="40cm" height="39cm" viewBox="236 151 792 772" xmlns="http://www.w3.org/2000/svg" xmlns:xlink="http://www.w3.org/1999/xlink">
  <g>
    <ellipse style="fill: #ffffff" cx="349.974" cy="414.182" rx="66.2" ry="18"/>
    <ellipse style="fill: none; fill-opacity:0; stroke-width: 2; stroke: #000000" cx="349.974" cy="414.182" rx="66.2" ry="18"/>
    <text font-size="12.8" style="fill: #000000;text-anchor:middle;font-family:monospace;font-style:normal;font-weight:normal" x="349.974" y="418.182">emailAddress</text>
  </g>
  <g>
    <rect style="fill: #ffffff" x="447.576" y="441.51" width="58.8" height="36"/>
    <rect style="fill: none; fill-opacity:0; stroke-width: 2; stroke: #000000" x="447.576" y="441.51" width="58.8" height="36"/>
    <text font-size="12.8" style="fill: #000000;text-anchor:middle;font-family:monospace;font-style:normal;font-weight:normal" x="476.976" y="463.51">User</text>
  </g>
  <line style="fill: none; fill-opacity:0; stroke-width: 2; stroke: #000000" x1="446.574" y1="448.659" x2="391.034" y2="428.837"/>
  <g>
    <ellipse style="fill: #ffffff" cx="356.976" cy="488.18" rx="66.2" ry="18"/>
    <ellipse style="fill: none; fill-opacity:0; stroke-width: 2; stroke: #000000" cx="356.976" cy="488.18" rx="66.2" ry="18"/>
    <text font-size="12.8" style="fill: #000000;text-anchor:middle;font-family:monospace;font-style:normal;font-weight:normal" x="356.976" y="492.18">passwordHash</text>
  </g>
  <line style="fill: none; fill-opacity:0; stroke-width: 2; stroke: #000000" x1="446.595" y1="466.768" x2="407.674" y2="476.067"/>
  <g>
    <polygon style="fill: #ffffff" points="410.776,287.43 476.976,247.71 543.176,287.43 476.976,327.15 "/>
    <polygon style="fill: none; fill-opacity:0; stroke-width: 2; stroke: #000000" points="410.776,287.43 476.976,247.71 543.176,287.43 476.976,327.15 "/>
    <text font-size="12.8" style="fill: #000000;text-anchor:end;font-family:monospace;font-style:normal;font-weight:normal" x="404.776" y="281.43">n</text>
    <text font-size="12.8" style="fill: #000000;text-anchor:start;font-family:monospace;font-style:normal;font-weight:normal" x="549.176" y="281.43">n</text>
    <text font-size="12.8" style="fill: #000000;text-anchor:middle;font-family:monospace;font-style:normal;font-weight:normal" x="476.976" y="291.43">relationship</text>
  </g>
  <line style="fill: none; fill-opacity:0; stroke-width: 2; stroke: #000000" x1="469.667" y1="440.51" x2="410.776" y2="287.43"/>
  <line style="fill: none; fill-opacity:0; stroke-width: 2; stroke: #000000" x1="484.285" y1="440.51" x2="543.176" y2="287.43"/>
  <g>
    <rect style="fill: #ffffff" x="859.774" y="785.808" width="81.9" height="36"/>
    <rect style="fill: none; fill-opacity:0; stroke-width: 2; stroke: #000000" x="859.774" y="785.808" width="81.9" height="36"/>
    <text font-size="12.8" style="fill: #000000;text-anchor:middle;font-family:monospace;font-style:normal;font-weight:normal" x="900.724" y="807.808">Message</text>
  </g>
  <g>
    <ellipse style="fill: #ffffff" cx="826.174" cy="904.18" rx="35.4" ry="18"/>
    <ellipse style="fill: none; fill-opacity:0; stroke-width: 2; stroke: #000000" cx="826.174" cy="904.18" rx="35.4" ry="18"/>
    <text font-size="12.8" style="fill: #000000;text-anchor:middle;font-family:monospace;font-style:normal;font-weight:normal" x="826.174" y="908.18">data</text>
  </g>
  <g>
    <ellipse style="fill: #ffffff" cx="983.874" cy="853.18" rx="43.1" ry="18"/>
    <ellipse style="fill: none; fill-opacity:0; stroke-width: 2; stroke: #000000" cx="983.874" cy="853.18" rx="43.1" ry="18"/>
    <text font-size="12.8" style="fill: #000000;text-anchor:middle;font-family:monospace;font-style:normal;font-weight:normal" x="983.874" y="857.18">author</text>
  </g>
  <g>
    <ellipse style="fill: #ffffff" cx="925.424" cy="887.18" rx="54.65" ry="18"/>
    <ellipse style="fill: none; fill-opacity:0; stroke-width: 2; stroke: #000000" cx="925.424" cy="887.18" rx="54.65" ry="18"/>
    <text font-size="12.8" style="fill: #000000;text-anchor:middle;font-family:monospace;font-style:normal;font-weight:normal" x="925.424" y="891.18">timestamp</text>
  </g>
  <line style="fill: none; fill-opacity:0; stroke-width: 2; stroke: #000000" x1="839.133" y1="886.733" x2="886.673" y2="822.726"/>
  <line style="fill: none; fill-opacity:0; stroke-width: 2; stroke: #000000" x1="919.924" y1="868.617" x2="906.35" y2="822.799"/>
  <line style="fill: none; fill-opacity:0; stroke-width: 2; stroke: #000000" x1="958.377" y1="838.041" x2="932.727" y2="822.811"/>
  <g>
    <rect style="fill: #ffffff" x="436.026" y="785.808" width="81.9" height="36"/>
    <rect style="fill: none; fill-opacity:0; stroke-width: 2; stroke: #000000" x="436.026" y="785.808" width="81.9" height="36"/>
    <text font-size="12.8" style="fill: #000000;text-anchor:middle;font-family:monospace;font-style:normal;font-weight:normal" x="476.976" y="807.808">Channel</text>
  </g>
  <g>
    <polygon style="fill: #ffffff" points="433.876,640.152 476.976,614.292 520.076,640.152 476.976,666.012 "/>
    <polygon style="fill: none; fill-opacity:0; stroke-width: 2; stroke: #000000" points="433.876,640.152 476.976,614.292 520.076,640.152 476.976,666.012 "/>
    <text font-size="12.8" style="fill: #000000;text-anchor:start;font-family:monospace;font-style:normal;font-weight:normal" x="480.976" y="608.292">n</text>
    <text font-size="12.8" style="fill: #000000;text-anchor:start;font-family:monospace;font-style:normal;font-weight:normal" x="480.976" y="688.012">n</text>
    <text font-size="12.8" style="fill: #000000;text-anchor:middle;font-family:monospace;font-style:normal;font-weight:normal" x="476.976" y="644.152">member</text>
  </g>
  <line style="fill: none; fill-opacity:0; stroke-width: 2; stroke: #000000" x1="476.976" y1="478.499" x2="476.976" y2="614.292"/>
  <line style="fill: none; fill-opacity:0; stroke-width: 2; stroke: #000000" x1="476.976" y1="666.012" x2="476.976" y2="784.817"/>
  <g>
    <ellipse style="fill: #ffffff" cx="615.724" cy="640.152" rx="46.95" ry="18"/>
    <ellipse style="fill: none; fill-opacity:0; stroke-width: 2; stroke: #000000" cx="615.724" cy="640.152" rx="46.95" ry="18"/>
    <text font-size="12.8" style="fill: #000000;text-anchor:middle;font-family:monospace;font-style:normal;font-weight:normal" x="615.724" y="644.152">isAdmin</text>
  </g>
  <line style="fill: none; fill-opacity:0; stroke-width: 2; stroke: #000000" x1="520.076" y1="640.152" x2="567.783" y2="640.152"/>
  <g>
    <polygon style="fill: #ffffff" points="629.774,803.808 688.274,768.708 746.774,803.808 688.274,838.908 "/>
    <polygon style="fill: none; fill-opacity:0; stroke-width: 2; stroke: #000000" points="629.774,803.808 688.274,768.708 746.774,803.808 688.274,838.908 "/>
    <text font-size="12.8" style="fill: #000000;text-anchor:end;font-family:monospace;font-style:normal;font-weight:normal" x="623.774" y="797.808">1</text>
    <text font-size="12.8" style="fill: #000000;text-anchor:start;font-family:monospace;font-style:normal;font-weight:normal" x="752.774" y="797.808">n</text>
    <text font-size="12.8" style="fill: #000000;text-anchor:middle;font-family:monospace;font-style:normal;font-weight:normal" x="688.274" y="807.808">hasMessage</text>
  </g>
  <line style="fill: none; fill-opacity:0; stroke-width: 2; stroke: #000000" x1="518.925" y1="803.808" x2="629.774" y2="803.808"/>
  <line style="fill: none; fill-opacity:0; stroke-width: 2; stroke: #000000" x1="746.774" y1="803.808" x2="858.769" y2="803.808"/>
  <g>
    <ellipse style="fill: #ffffff" cx="803.574" cy="845.706" rx="50.8" ry="18"/>
    <ellipse style="fill: none; fill-opacity:0; stroke-width: 2; stroke: #000000" cx="803.574" cy="845.706" rx="50.8" ry="18"/>
    <text font-size="12.8" style="fill: #000000;text-anchor:middle;font-family:monospace;font-style:normal;font-weight:normal" x="803.574" y="849.706">dataType</text>
  </g>
  <line style="fill: none; fill-opacity:0; stroke-width: 2; stroke: #000000" x1="858.778" y1="821.898" x2="836.744" y2="831.401"/>
  <g>
    <ellipse style="fill: #ffffff" cx="417.426" cy="212.71" rx="54.65" ry="18"/>
    <ellipse style="fill: none; fill-opacity:0; stroke-width: 2; stroke: #000000" cx="417.426" cy="212.71" rx="54.65" ry="18"/>
    <text font-size="12.8" style="fill: #000000;text-anchor:middle;font-family:monospace;font-style:normal;font-weight:normal" x="417.426" y="216.71">isBlocked</text>
  </g>
  <g>
    <ellipse style="fill: #ffffff" cx="543.574" cy="204.71" rx="50.8" ry="18"/>
    <ellipse style="fill: none; fill-opacity:0; stroke-width: 2; stroke: #000000" cx="543.574" cy="204.71" rx="50.8" ry="18"/>
    <text font-size="12.8" style="fill: #000000;text-anchor:middle;font-family:monospace;font-style:normal;font-weight:normal" x="543.574" y="208.71">isFriend</text>
  </g>
  <line style="fill: none; fill-opacity:0; stroke-width: 2; stroke: #000000" x1="443.876" y1="267.57" x2="426.431" y2="231.387"/>
  <line style="fill: none; fill-opacity:0; stroke-width: 2; stroke: #000000" x1="510.076" y1="267.57" x2="533.674" y2="223.287"/>
  <g>
    <ellipse style="fill: #ffffff" cx="424.076" cy="869.174" rx="35.4" ry="18"/>
    <ellipse style="fill: none; fill-opacity:0; stroke-width: 2; stroke: #000000" cx="424.076" cy="869.174" rx="35.4" ry="18"/>
    <text font-size="12.8" style="fill: #000000;text-anchor:middle;font-family:monospace;font-style:normal;font-weight:normal" x="424.076" y="873.174">name</text>
  </g>
  <line style="fill: none; fill-opacity:0; stroke-width: 2; stroke: #000000" x1="438.153" y1="851.779" x2="461.601" y2="822.807"/>
  <g>
    <ellipse style="fill: #ffffff" cx="481.516" cy="170.213" rx="35.4" ry="18"/>
    <ellipse style="fill: none; fill-opacity:0; stroke-width: 2; stroke: #000000" cx="481.516" cy="170.213" rx="35.4" ry="18"/>
    <text font-size="12.8" style="fill: #000000;text-anchor:middle;font-family:monospace;font-style:normal;font-weight:normal" x="481.516" y="174.213">note</text>
  </g>
  <line style="fill: none; fill-opacity:0; stroke-width: 2; stroke: #000000" x1="476.976" y1="247.71" x2="480.405" y2="189.171"/>
  <g>
    <ellipse style="fill: #ffffff" cx="364.938" cy="826.17" rx="35.4" ry="18"/>
    <ellipse style="fill: none; fill-opacity:0; stroke-width: 2; stroke: #000000" cx="364.938" cy="826.17" rx="35.4" ry="18"/>
    <text font-size="12.8" style="fill: #000000;text-anchor:middle;font-family:monospace;font-style:normal;font-weight:normal" x="364.938" y="830.17">type</text>
  </g>
  <line style="fill: none; fill-opacity:0; stroke-width: 2; stroke: #000000" x1="398.869" y1="819.398" x2="435.044" y2="812.177"/>
  <g>
    <ellipse style="fill: #ffffff" cx="288.356" cy="450.73" rx="50.8" ry="18"/>
    <ellipse style="fill: none; fill-opacity:0; stroke-width: 2; stroke: #000000" cx="288.356" cy="450.73" rx="50.8" ry="18"/>
    <text font-size="12.8" style="fill: #000000;text-anchor:middle;font-family:monospace;font-style:normal;font-weight:normal" x="288.356" y="454.73">nickname</text>
  </g>
  <line style="fill: none; fill-opacity:0; stroke-width: 2; stroke: #000000" x1="462.264" y1="478.5" x2="437.569" y2="510.375"/>
  <line style="fill: none; fill-opacity:0; stroke-width: 2; stroke: #000000" x1="339.713" y1="453.121" x2="446.572" y2="458.095"/>
  <g>
    <ellipse style="fill: #ffffff" cx="423.976" cy="527.92" rx="35.4" ry="18"/>
    <ellipse style="fill: none; fill-opacity:0; stroke-width: 2; stroke: #000000" cx="423.976" cy="527.92" rx="35.4" ry="18"/>
    <text font-size="12.8" style="fill: #000000;text-anchor:middle;font-family:monospace;font-style:normal;font-weight:normal" x="423.976" y="531.92">role</text>
  </g>
</svg>
