<?xml version="1.0" encoding="UTF-8" standalone="no"?>
<!DOCTYPE svg PUBLIC "-//W3C//DTD SVG 1.0//EN" "http://www.w3.org/TR/2001/PR-SVG-20010719/DTD/svg10.dtd">
<svg width="46cm" height="39cm" viewBox="58 92 918 765" xmlns="http://www.w3.org/2000/svg" xmlns:xlink="http://www.w3.org/1999/xlink">
  <g>
    <rect style="fill: #ffffff" x="126.079" y="232" width="152.85" height="38"/>
    <rect style="fill: none; fill-opacity:0; stroke-width: 2; stroke: #000000" x="126.079" y="232" width="152.85" height="38"/>
    <text font-size="12.8" style="fill: #000000;text-anchor:middle;font-family:sans-serif;font-style:normal;font-weight:normal" x="202.504" y="254.9">
      <tspan x="202.504" y="254.9">get all public groups</tspan>
    </text>
  </g>
  <g>
    <rect style="fill: #ffffff" x="125.204" y="342" width="154.6" height="38"/>
    <rect style="fill: none; fill-opacity:0; stroke-width: 2; stroke: #000000" x="125.204" y="342" width="154.6" height="38"/>
    <text font-size="12.8" style="fill: #000000;text-anchor:middle;font-family:sans-serif;font-style:normal;font-weight:normal" x="202.504" y="364.9">
      <tspan x="202.504" y="364.9">select channel by id</tspan>
    </text>
  </g>
  <g>
    <polygon style="fill: #ffffff" points="202.504,423.88 345.853,486.098 202.504,548.315 59.1558,486.098 "/>
    <polygon style="fill: none; fill-opacity:0; stroke-width: 2; stroke: #000000" points="202.504,423.88 345.853,486.098 202.504,548.315 59.1558,486.098 "/>
    <text font-size="12.8" style="fill: #000000;text-anchor:middle;font-family:sans-serif;font-style:normal;font-weight:normal" x="202.504" y="489.998">
      <tspan x="202.504" y="489.998">channelType == 'publicGroup'</tspan>
    </text>
  </g>
  <g>
    <rect style="fill: #ffffff" x="408.95" y="467.096" width="56.1" height="38"/>
    <rect style="fill: none; fill-opacity:0; stroke-width: 2; stroke: #000000" x="408.95" y="467.096" width="56.1" height="38"/>
    <text font-size="12.8" style="fill: #000000;text-anchor:middle;font-family:sans-serif;font-style:normal;font-weight:normal" x="437" y="489.996">
      <tspan x="437" y="489.996">abort</tspan>
    </text>
  </g>
  <g>
    <rect style="fill: #ffffff" x="97.0294" y="629" width="210.95" height="54"/>
    <rect style="fill: none; fill-opacity:0; stroke-width: 2; stroke: #000000" x="97.0294" y="629" width="210.95" height="54"/>
    <text font-size="12.8" style="fill: #000000;text-anchor:middle;font-family:sans-serif;font-style:normal;font-weight:normal" x="202.504" y="659.9">
      <tspan x="202.504" y="659.9">add user to channelMembers</tspan>
    </text>
  </g>
  <g>
    <ellipse style="fill: #ffffff" cx="202.504" cy="142" rx="69.6716" ry="34.8358"/>
    <ellipse style="fill: none; fill-opacity:0; stroke-width: 2; stroke: #000000" cx="202.504" cy="142" rx="69.6716" ry="34.8358"/>
    <text font-size="12.8" style="fill: #000000;text-anchor:middle;font-family:sans-serif;font-style:normal;font-weight:normal" x="202.504" y="145.9">
      <tspan x="202.504" y="145.9">join public group</tspan>
    </text>
  </g>
  <line style="fill: none; fill-opacity:0; stroke-width: 2; stroke: #000000" x1="202.504" y1="548.314" x2="202.504" y2="629"/>
  <line style="fill: none; fill-opacity:0; stroke-width: 2; stroke: #000000" x1="202.504" y1="177.832" x2="202.504" y2="231.201"/>
  <line style="fill: none; fill-opacity:0; stroke-width: 2; stroke: #000000" x1="202.504" y1="270" x2="202.504" y2="342"/>
  <line style="fill: none; fill-opacity:0; stroke-width: 2; stroke: #000000" x1="202.504" y1="380" x2="202.504" y2="423.88"/>
  <line style="fill: none; fill-opacity:0; stroke-width: 2; stroke: #000000" x1="345.852" y1="486.096" x2="408.95" y2="486.096"/>
  <g>
    <rect style="fill: #ffffff" x="632.382" y="231.036" width="152.85" height="38"/>
    <rect style="fill: none; fill-opacity:0; stroke-width: 2; stroke: #000000" x="632.382" y="231.036" width="152.85" height="38"/>
    <text font-size="12.8" style="fill: #000000;text-anchor:middle;font-family:sans-serif;font-style:normal;font-weight:normal" x="708.807" y="253.936">
      <tspan x="708.807" y="253.936">get id of user</tspan>
    </text>
  </g>
  <g>
    <rect style="fill: #ffffff" x="631.506" y="341.036" width="154.6" height="38"/>
    <rect style="fill: none; fill-opacity:0; stroke-width: 2; stroke: #000000" x="631.506" y="341.036" width="154.6" height="38"/>
    <text font-size="12.8" style="fill: #000000;text-anchor:middle;font-family:sans-serif;font-style:normal;font-weight:normal" x="708.806" y="363.936">
      <tspan x="708.806" y="363.936">select channel by id</tspan>
    </text>
  </g>
  <g>
    <polygon style="fill: #ffffff" points="708.807,411.608 878.205,485.132 708.807,558.656 539.408,485.132 "/>
    <polygon style="fill: none; fill-opacity:0; stroke-width: 2; stroke: #000000" points="708.807,411.608 878.205,485.132 708.807,558.656 539.408,485.132 "/>
    <text font-size="12.8" style="fill: #000000;text-anchor:middle;font-family:sans-serif;font-style:normal;font-weight:normal" x="708.807" y="489.032">
      <tspan x="708.807" y="489.032">channelType == 'privateGroup'</tspan>
    </text>
  </g>
  <g>
    <rect style="fill: #ffffff" x="919.034" y="466.132" width="56.1" height="38"/>
    <rect style="fill: none; fill-opacity:0; stroke-width: 2; stroke: #000000" x="919.034" y="466.132" width="56.1" height="38"/>
    <text font-size="12.8" style="fill: #000000;text-anchor:middle;font-family:sans-serif;font-style:normal;font-weight:normal" x="947.084" y="489.032">
      <tspan x="947.084" y="489.032">abort</tspan>
    </text>
  </g>
  <g>
    <ellipse style="fill: #ffffff" cx="708.806" cy="141.036" rx="95.0543" ry="47.5271"/>
    <ellipse style="fill: none; fill-opacity:0; stroke-width: 2; stroke: #000000" cx="708.806" cy="141.036" rx="95.0543" ry="47.5271"/>
    <text font-size="12.8" style="fill: #000000;text-anchor:middle;font-family:sans-serif;font-style:normal;font-weight:normal" x="708.806" y="144.936">
      <tspan x="708.806" y="144.936">add user to private group</tspan>
    </text>
  </g>
  <line style="fill: none; fill-opacity:0; stroke-width: 2; stroke: #000000" x1="708.806" y1="558.658" x2="708.806" y2="577.33"/>
  <line style="fill: none; fill-opacity:0; stroke-width: 2; stroke: #000000" x1="708.807" y1="189.149" x2="708.807" y2="230.237"/>
  <line style="fill: none; fill-opacity:0; stroke-width: 2; stroke: #000000" x1="708.806" y1="269.036" x2="708.806" y2="341.036"/>
  <line style="fill: none; fill-opacity:0; stroke-width: 2; stroke: #000000" x1="708.806" y1="379.036" x2="708.806" y2="411.608"/>
  <line style="fill: none; fill-opacity:0; stroke-width: 2; stroke: #000000" x1="878.206" y1="485.132" x2="919.034" y2="485.132"/>
  <g>
    <polygon style="fill: #ffffff" points="708.806,577.33 882.144,663.999 708.806,750.668 535.468,663.999 "/>
    <polygon style="fill: none; fill-opacity:0; stroke-width: 2; stroke: #000000" points="708.806,577.33 882.144,663.999 708.806,750.668 535.468,663.999 "/>
    <text font-size="12.8" style="fill: #000000;text-anchor:middle;font-family:sans-serif;font-style:normal;font-weight:normal" x="708.806" y="667.899">
      <tspan x="708.806" y="667.899">is current user admin of selected channel</tspan>
    </text>
  </g>
  <g>
    <rect style="fill: #ffffff" x="604.282" y="818" width="209.05" height="38"/>
    <rect style="fill: none; fill-opacity:0; stroke-width: 2; stroke: #000000" x="604.282" y="818" width="209.05" height="38"/>
    <text font-size="12.8" style="fill: #000000;text-anchor:middle;font-family:sans-serif;font-style:normal;font-weight:normal" x="708.807" y="840.9">
      <tspan x="708.807" y="840.9">add user to channelMembers</tspan>
    </text>
  </g>
  <g>
    <rect style="fill: #ffffff" x="919.034" y="645" width="56.1" height="38"/>
    <rect style="fill: none; fill-opacity:0; stroke-width: 2; stroke: #000000" x="919.034" y="645" width="56.1" height="38"/>
    <text font-size="12.8" style="fill: #000000;text-anchor:middle;font-family:sans-serif;font-style:normal;font-weight:normal" x="947.084" y="667.9">
      <tspan x="947.084" y="667.9">abort</tspan>
    </text>
  </g>
  <line style="fill: none; fill-opacity:0; stroke-width: 2; stroke: #000000" x1="708.806" y1="750.67" x2="708.806" y2="818"/>
  <line style="fill: none; fill-opacity:0; stroke-width: 2; stroke: #000000" x1="882.144" y1="664" x2="919.034" y2="664"/>
</svg>
